<?xml version="1.0" encoding="utf-8"?>
<!-- Svg Vector Icons : http://www.onlinewebfonts.com/icon -->
<!DOCTYPE svg PUBLIC "-//W3C//DTD SVG 1.1//EN" "http://www.w3.org/Graphics/SVG/1.1/DTD/svg11.dtd">
<svg version="1.1" xmlns="http://www.w3.org/2000/svg" xmlns:xlink="http://www.w3.org/1999/xlink" x="0px" y="0px" viewBox="0 0 1000 1000" enable-background="new 0 0 1000 1000" xml:space="preserve">
<metadata> Svg Vector Icons : http://www.onlinewebfonts.com/icon </metadata>
<g><g><path d="M937.7,444.4l-129-44.6l-74.7-126.9c-25-39.4-42.1-52.3-117.1-52.3H62.3C33.4,220.5,10,244,10,272.9v278.2h66.4c13.8,0,24.9,11.2,24.9,24.9c0,13.7-11.2,24.9-24.9,24.9H10v27.4c0,28.9,23.4,52.3,52.3,52.3h27.8c3.5-57.4,51-103,109.3-103c58.3,0,105.9,45.6,109.3,103h376c2.1-33.9,19.8-66.4,50.6-86c51.1-32.4,118.9-17.2,151.3,33.9c10.3,16.2,15.7,34.1,16.8,52h34.3c28.9,0,52.3-23.4,52.3-52.3V496.7C990,467.8,968.6,454.5,937.7,444.4z M213.9,392.5c0,3.4-2.7,6.1-6.1,6.1H84.2c-3.4,0-6.1-2.8-6.1-6.1v-93.1c0-3.4,2.7-6.1,6.1-6.1h123.6c3.4,0,6.1,2.7,6.1,6.1L213.9,392.5L213.9,392.5z M380.4,392.5c0,3.4-2.7,6.1-6.1,6.1H250.7c-3.4,0-6.1-2.8-6.1-6.1v-93.1c0-3.4,2.7-6.1,6.1-6.1h123.6c3.4,0,6.1,2.7,6.1,6.1V392.5z M741.3,414H502.9c-3.6,0-6.4-2.9-6.4-6.4V281c0-3.6,2.9-6.4,6.4-6.4h170.8c3.6,0,8.8,1.3,11.4,6.4l62.7,126.6C747.8,411.2,744.9,414,741.3,414z M980.8,575.7c0,9.7-7.8,17.5-17.5,17.5h-53.9c-9.7,0-17.5-7.8-17.5-17.5v-39.3c0-9.7,7.8-17.5,17.5-17.5h53.9c9.7,0,17.5,7.8,17.5,17.5V575.7z M198.5,587.6c-51.3,0-93,41.7-93,93c0,51.3,41.7,93,93,93c51.3,0,93-41.7,93-93C291.5,629.3,249.8,587.6,198.5,587.6z M239.3,632.5c-3.1,1.5-6.4,3.2-10.1,5.3c-9,5.2-19.2,12.5-29.1,21.1c-11-9.9-22.5-18.4-32.6-24.2c-2.7-1.5-5.1-2.8-7.4-4c10.7-8.2,24-13.2,38.5-13.2C214.1,617.5,228.2,623.2,239.3,632.5z M151.1,639.1c1.2,2.4,2.6,5,4.2,7.8c5.8,10,14.2,21.4,24,32.4c-9.6,10.8-18,22.1-23.6,32c-2.1,3.7-3.8,7-5.3,10.1c-9.3-11-15-25.2-15-40.7C135.4,664.7,141.4,650.2,151.1,639.1z M157.8,728.8c3.1-1.5,6.4-3.2,10.1-5.3c9.9-5.7,21.3-14.1,32.2-23.9c9.8,8.4,19.8,15.7,28.6,20.8c4.8,2.8,9,4.8,12.6,6.5c-11.3,10.4-26.3,16.9-42.8,16.9C183,743.7,168.8,738.1,157.8,728.8z M247.4,720.5c-1.6-3.6-3.7-7.7-6.4-12.4c-5.1-8.9-12.4-19-20.9-28.9c8.6-10,16.1-20.2,21.3-29.3c2.1-3.7,3.9-7,5.3-10.1c9.3,11,15,25.2,15,40.7C261.6,695.8,256.3,709.7,247.4,720.5z M793.1,593.4c-51.3,0-93,41.7-93,93c0,51.3,41.7,93,93,93c51.3,0,93-41.7,93-93C886.2,635.2,844.4,593.4,793.1,593.4z M833.9,638.3c-3.1,1.5-6.4,3.2-10.1,5.3c-9,5.2-19.2,12.5-29.1,21.1c-11-9.9-22.5-18.4-32.6-24.2c-2.7-1.5-5.1-2.8-7.4-4c10.7-8.2,24-13.2,38.5-13.2C808.7,623.3,822.9,629,833.9,638.3z M745.7,644.9c1.2,2.4,2.6,5,4.2,7.8c5.8,10,14.2,21.4,24,32.4c-9.7,10.8-18,22.1-23.6,32c-2.1,3.7-3.8,7-5.3,10.1c-9.3-11-15-25.2-15-40.7C730,670.5,736,656,745.7,644.9z M752.5,734.6c3-1.5,6.4-3.2,10.1-5.3c9.9-5.7,21.3-14.1,32.2-23.9c9.8,8.4,19.8,15.7,28.6,20.8c4.8,2.8,9,4.8,12.6,6.5c-11.3,10.4-26.3,16.9-42.8,16.9C777.7,749.5,763.5,743.9,752.5,734.6z M842,726.3c-1.6-3.6-3.7-7.7-6.4-12.4c-5.1-8.9-12.4-19-20.9-28.9c8.6-10,16.1-20.2,21.3-29.3c2.1-3.7,3.8-7,5.3-10.1c9.3,11,15,25.2,15,40.7C856.3,701.6,850.9,715.5,842,726.3z"/></g><g></g><g></g><g></g><g></g><g></g><g></g><g></g><g></g><g></g><g></g><g></g><g></g><g></g><g></g><g></g></g>
</svg>