<svg height="672pt" viewBox="-21 -21 672.00273 672" width="672pt" xmlns="http://www.w3.org/2000/svg"><path d="m598.539062 398.722656h-31.46875v-167.8125h14.6875c14.769532.074219 27.578126-10.199218 30.707032-24.632812l17.335937-77.972656c.050781-.597657.050781-1.199219 0-1.800782.113281-.726562.148438-1.46875.105469-2.199218l-9.015625-54.183594c-1.703125-10.125-10.480469-17.535156-20.75-17.503906h-12.089844v-31.464844c0-5.792969-4.695312-10.488282-10.488281-10.488282-5.796875 0-10.492188 4.695313-10.492188 10.488282v31.464844h-41.945312v-31.464844c0-11.582032-9.398438-20.972656-20.980469-20.972656h-41.953125c-11.582031 0-20.972656 9.390624-20.972656 20.972656v31.464844h-41.953125v-31.464844c0-5.792969-4.695313-10.488282-10.488281-10.488282-5.792969 0-10.488282 4.695313-10.488282 10.488282v31.464844h-12.09375c-10.253906 0-19.003906 7.410156-20.6875 17.527343l-9.023437 54.160157c-.042969.730468-.007813 1.472656.105469 2.199218-.050782.601563-.050782 1.203125 0 1.800782l17.335937 77.972656c3.128907 14.414062 15.90625 24.675781 30.65625 24.632812h14.683594v167.8125h-104.878906v-73.417968c17.308593-.257813 31.25-14.28125 31.40625-31.589844.15625-17.3125-13.53125-31.585938-30.832031-32.15625l-98.648438-17.253906c-21.863281-3.808594-44.214844-3.808594-66.074219 0l-98.632812 17.210937c-17.609375.160156-31.761719 14.570313-31.605469 32.183594.164062 17.613281 14.570312 31.761719 32.1875 31.605469v73.417968c-17.378906 0-31.46875 14.085938-31.46875 31.460938v167.8125c0 17.375 14.089844 31.460937 31.46875 31.460937h566.351562c17.375 0 31.464844-14.085937 31.464844-31.460937v-167.8125c0-17.375-14.089844-31.460938-31.464844-31.460938zm-6.597656-197c-1.035156 4.796875-5.277344 8.21875-10.183594 8.214844h-46.148437v-73.417969h70.828125zm-140.238281 8.214844v-73.417969h62.929687v73.417969zm10.488281-188.785156h41.953125v31.464844h-41.953125zm-95.996094 52.441406h233.945313l6.984375 41.949219h-247.914062zm8.203126 128.128906-14.492188-65.203125h70.824219v73.417969h-46.148438c-4.910156.003906-9.148437-3.417969-10.183593-8.214844zm45.839843 29.1875h125.859375v167.8125h-125.859375zm-398.539062 62.476563c.003906-6.015625 4.882812-10.898438 10.90625-10.902344.605469 0 1.207031-.054687 1.800781-.171875l99.449219-17.386719c19.472656-3.402343 39.390625-3.402343 58.859375 0l99.445312 17.378907c.597656.109374 1.203125.167968 1.808594.164062 5.898438.1875 10.585938 5.023438 10.585938 10.925781 0 5.90625-4.6875 10.742188-10.585938 10.921875h-261.363281c-6.027344-.007812-10.90625-4.898437-10.90625-10.929687zm31.460937 31.917969h220.246094v73.417968h-20.972656v-20.980468c0-11.582032-9.390625-20.972657-20.976563-20.972657h-136.34375c-11.582031 0-20.972656 9.390625-20.972656 20.972657v20.980468h-20.980469zm178.296875 73.417968h-136.34375v-20.980468h136.34375zm377.566407 199.273438c0 5.789062-4.695313 10.484375-10.484376 10.484375h-566.351562c-5.792969 0-10.488281-4.695313-10.488281-10.484375v-167.8125c0-5.792969 4.695312-10.488282 10.488281-10.488282h566.351562c5.789063 0 10.484376 4.695313 10.484376 10.488282zm0 0"/><path d="m47.265625 142.4375h-.230469c-5.632812.007812-11.03125 2.273438-14.984375 6.292969l-18.828125 19.253906c-4.371094 4.460937-6.523437 10.644531-5.875 16.859375.648438 6.214844 4.03125 11.8125 9.230469 15.277344l46.078125 30.6875c7.53125 5.042968 17.457031 4.660156 24.578125-.945313l227.148437-178.296875c9.109376-7.199218 10.679688-20.402344 3.527344-29.542968-16.125-22.0976568-46.285156-28.53125-70.019531-14.933594-20.894531 12.0625-41.050781 25.367187-60.34375 39.855468l-93.230469-28.15625c-7.394531-2.242187-15.425781-.226562-20.878906 5.25l-26.757812 26.761719c-4.878907 4.886719-7.035157 11.855469-5.78125 18.640625 1.261718 6.785156 5.777343 12.519532 12.070312 15.332032l64.347656 28.796874-35.734375 29.242188zm47.59375 16.582031 35.660156-29.21875c5.628907-4.609375 8.464844-11.796875 7.503907-19.007812-.960938-7.203125-5.585938-13.402344-12.222657-16.371094l-64.25-28.796875 26.714844-26.75 93.21875 28.148438c6.257813 1.914062 13.050781.773437 18.34375-3.078126 18.320313-13.710937 37.402344-26.382812 57.144531-37.957031 14.882813-9.320312 34.460938-5.308593 44.480469 9.113281l-227.15625 178.296876-46.078125-30.730469 18.878906-19.222657 34.320313.347657h.230469c4.820312-.027344 9.488281-1.714844 13.210937-4.773438zm0 0"/><path d="m63.648438 503.601562h125.855468c11.585938 0 20.976563-9.390624 20.976563-20.976562v-20.976562c0-11.582032-9.390625-20.972657-20.976563-20.972657h-125.855468c-11.585938 0-20.976563 9.390625-20.976563 20.972657v20.976562c0 11.585938 9.390625 20.976562 20.976563 20.976562zm0-41.953124h125.855468v20.976562h-125.855468zm0 0"/><path d="m315.359375 524.578125h-251.710937c-11.585938 0-20.976563 9.390625-20.976563 20.976563v20.972656c0 11.585937 9.390625 20.976562 20.976563 20.976562h251.710937c11.589844 0 20.980469-9.390625 20.980469-20.976562v-20.972656c0-11.585938-9.390625-20.976563-20.980469-20.976563zm-251.710937 41.949219v-20.972656h251.710937v20.972656zm0 0"/><path d="m441.21875 440.675781h-62.929688c-11.585937 0-20.976562 9.390625-20.976562 20.972657v20.976562c0 11.585938 9.390625 20.976562 20.976562 20.976562h62.929688c11.582031 0 20.972656-9.390624 20.972656-20.976562v-20.976562c0-11.582032-9.390625-20.972657-20.972656-20.972657zm-62.929688 41.949219v-20.976562h62.929688v20.976562zm0 0"/><path d="m315.359375 440.675781h-62.925781c-11.585938 0-20.976563 9.390625-20.976563 20.972657v20.976562c0 11.585938 9.390625 20.976562 20.976563 20.976562h62.925781c11.589844 0 20.980469-9.390624 20.980469-20.976562v-20.976562c0-11.582032-9.390625-20.972657-20.980469-20.972657zm-62.925781 41.949219v-20.976562h62.925781v20.976562zm0 0"/><path d="m567.070312 440.675781h-62.925781c-11.582031 0-20.972656 9.390625-20.972656 20.972657v20.976562c0 11.585938 9.390625 20.976562 20.972656 20.976562h62.925781c11.589844 0 20.980469-9.390624 20.980469-20.976562v-20.976562c0-11.582032-9.390625-20.972657-20.980469-20.972657zm-62.925781 41.949219v-20.976562h62.925781v20.976562zm0 0"/><path d="m567.070312 524.578125h-62.925781c-11.582031 0-20.972656 9.390625-20.972656 20.976563v20.972656c0 11.585937 9.390625 20.976562 20.972656 20.976562h62.925781c11.589844 0 20.980469-9.390625 20.980469-20.976562v-20.972656c0-11.585938-9.390625-20.976563-20.980469-20.976563zm-62.925781 41.949219v-20.972656h62.925781v20.972656zm0 0"/><path d="m441.21875 524.578125h-62.929688c-11.585937 0-20.976562 9.390625-20.976562 20.976563v20.972656c0 11.585937 9.390625 20.976562 20.976562 20.976562h62.929688c11.582031 0 20.972656-9.390625 20.972656-20.976562v-20.972656c0-11.585938-9.390625-20.976563-20.972656-20.976563zm-62.929688 41.949219v-20.972656h62.929688v20.972656zm0 0"/><path d="m451.703125 251.890625c-5.789063 0-10.484375 4.695313-10.484375 10.488281v52.4375c0 5.792969 4.695312 10.488282 10.484375 10.488282 5.792969 0 10.488281-4.695313 10.488281-10.488282v-52.4375c0-5.792968-4.695312-10.488281-10.488281-10.488281zm0 0"/><path d="m451.703125 346.28125c-5.789063 0-10.484375 4.695312-10.484375 10.488281v10.488281c0 5.789063 4.695312 10.484376 10.484375 10.484376 5.792969 0 10.488281-4.695313 10.488281-10.484376v-10.488281c0-5.792969-4.695312-10.488281-10.488281-10.488281zm0 0"/></svg>