<?xml version="1.0" encoding="iso-8859-1"?>
<!-- Generator: Adobe Illustrator 19.0.0, SVG Export Plug-In . SVG Version: 6.00 Build 0)  -->
<svg version="1.1" id="Layer_1" xmlns="http://www.w3.org/2000/svg" xmlns:xlink="http://www.w3.org/1999/xlink" x="0px" y="0px"
	 viewBox="0 0 512.853 512.853" style="enable-background:new 0 0 512.853 512.853;" xml:space="preserve">
<g transform="translate(1 1)">
	<g>
		<g>
			<path d="M496.493,357.827c-5.12-0.853-9.387,2.56-10.24,6.827c-9.387,46.933-46.933,78.507-92.16,78.507
				c-43.31,0-80.786-28.35-93.694-68.267h39.934v-17.067h-49.569c-1.112-0.211-2.252-0.217-3.338,0h-15.36v68.267h17.067v-31.674
				c18.444,39.514,58.928,65.807,104.107,65.807c54.613,0,98.133-36.693,110.08-92.16
				C504.173,362.947,500.76,358.68,496.493,357.827z"/>
			<path d="M493.933,292.981c-19.062-38.461-57.337-63.154-100.693-63.154c-52.053,0-98.133,34.133-112.64,83.627
				c-0.853,4.267,1.707,8.533,5.973,10.24c4.267,0.853,8.533-1.707,10.24-5.973c11.947-40.96,52.907-70.827,96.427-70.827
				c38.848,0,73.443,23.35,88.343,59.733h-38.85v17.067H511v-68.267h-17.067V292.981z"/>
			<path d="M348.867,183.747V105.24c0-11.093-9.387-20.48-20.48-20.48h-61.44c-11.093,0-20.48,9.387-20.48,20.48v78.507
				c0,11.093,9.387,20.48,20.48,20.48h61.44C339.48,204.227,348.867,194.84,348.867,183.747z M263.533,183.747V105.24
				c0-1.707,1.707-3.413,3.413-3.413h61.44c1.707,0,3.413,1.707,3.413,3.413v78.507c0,1.707-1.707,3.413-3.413,3.413h-61.44
				C265.24,187.16,263.533,185.453,263.533,183.747z"/>
			<path d="M138.947,84.76c-11.093,0-20.48,9.387-20.48,20.48v78.507c0,11.093,9.387,20.48,20.48,20.48h61.44
				c11.093,0,20.48-9.387,20.48-20.48V105.24c0-11.093-9.387-20.48-20.48-20.48H138.947z M203.8,105.24v78.507
				c0,1.707-1.707,3.413-3.413,3.413h-61.44c-1.707,0-3.413-1.707-3.413-3.413V105.24c0-1.707,1.707-3.413,3.413-3.413h61.44
				C202.093,101.827,203.8,103.533,203.8,105.24z"/>
			<path d="M101.4,332.227c-9.387,0-17.067,7.68-17.067,17.067s7.68,17.067,17.067,17.067c9.387,0,17.067-7.68,17.067-17.067
				S110.787,332.227,101.4,332.227z"/>
			<path d="M504.173,141.933l-74.24-81.92c-5.973-5.973-13.653-9.387-21.333-9.387h-384C10.947,50.627-1,61.72-1,76.227v8.533
				v119.467v128c0,13.653,11.093,25.6,25.6,25.6h17.669c4.075,29.155,28.753,51.2,59.131,51.2c30.378,0,55.056-22.045,59.131-51.2
				H255V340.76h-94.469c-4.075-29.155-28.753-51.2-59.131-51.2c-0.138,0-0.274,0.009-0.412,0.01c-0.148-0.001-0.293-0.01-0.441-0.01
				c-29.867,0-54.613,22.187-58.88,51.2H24.6c-4.267,0-8.533-3.413-8.533-8.533v-59.733h247.467c5.12,0,8.533-3.413,8.533-8.533
				s-3.413-8.533-8.533-8.533H16.067V238.36H229.4c5.12,0,8.533-3.413,8.533-8.533c0-5.12-3.413-8.533-8.533-8.533H16.067v-17.067
				h58.027c10.24,0,18.773-8.533,18.773-18.773v-81.92c0-10.24-8.533-18.773-18.773-18.773H16.067v-8.533
				c0-4.267,4.267-8.533,8.533-8.533h384c2.56,0,5.973,1.707,8.533,3.413l12.373,13.653h-40.533c-7.68,0-14.507,6.827-14.507,14.507
				v90.453c0,7.68,6.827,14.507,14.507,14.507h105.813v34.133h17.067v-76.8C511.853,153.88,509.293,147.053,504.173,141.933z
				 M101.4,391.96c-23.893,0-42.667-18.773-42.667-42.667c0-23.893,18.773-42.667,42.667-42.667
				c23.893,0,42.667,18.773,42.667,42.667C144.067,373.187,125.293,391.96,101.4,391.96z M74.093,101.827
				c0.853,0,1.707,0.853,1.707,1.707v81.92c0,0.853-0.853,1.707-1.707,1.707H16.067v-85.333H74.093z M493.933,187.16h-102.4v-85.333
				h52.053l46.933,51.2c2.56,1.707,3.413,5.12,3.413,7.68V187.16z"/>
		</g>
	</g>
</g>
<g>
</g>
<g>
</g>
<g>
</g>
<g>
</g>
<g>
</g>
<g>
</g>
<g>
</g>
<g>
</g>
<g>
</g>
<g>
</g>
<g>
</g>
<g>
</g>
<g>
</g>
<g>
</g>
<g>
</g>
</svg>
