<svg height="480pt" viewBox="0 0 480 480" width="480pt" xmlns="http://www.w3.org/2000/svg"><path d="m0 0v480h480v-480zm368 16h96v69.96875l-26.03125 26.03125h-69.96875zm-47.359375 213.328125-40.640625-40.640625-32 32v-92.6875h104v69.96875zm-192.640625-101.328125h104v104h-104zm-16 104h-96v-104h96zm16-120v-96h104v96zm92.6875 136-84.6875 84.6875-8-8v-76.6875zm147.3125-120h53.96875l-53.96875 53.96875zm-16-16h-104v-96h104zm-240-96v96h-96v-96zm-96 314.574219v-82.574219h96v60.6875l-49.296875-49.296875zm49.296875-45.964844 70.703125 70.703125 144-144 40.640625 40.640625 143.359375-143.359375v159.09375l-144.464844 106.710938-80.800781-48.460938-95.597656 95.613281-56-40-71.136719 71.136719v-92.933594zm-37.984375 179.390625 61.550781-61.550781 56 40 96.375-96.378907 79.203125 47.539063 143.558594-106.035156v176.425781zm0 0"/></svg>