<?xml version="1.0" encoding="iso-8859-1"?>
<!-- Generator: Adobe Illustrator 16.0.0, SVG Export Plug-In . SVG Version: 6.00 Build 0)  -->
<!DOCTYPE svg PUBLIC "-//W3C//DTD SVG 1.1//EN" "http://www.w3.org/Graphics/SVG/1.1/DTD/svg11.dtd">
<svg version="1.1" id="Capa_1" xmlns="http://www.w3.org/2000/svg" xmlns:xlink="http://www.w3.org/1999/xlink" x="0px" y="0px"
	 width="479.672px" height="479.673px" viewBox="0 0 479.672 479.673" style="enable-background:new 0 0 479.672 479.673;"
	 xml:space="preserve">
<g>
	<g>
		<path d="M92.639,266.906c-5.028,0-9.567,3.014-11.52,7.647c-1.952,4.634-0.938,9.987,2.575,13.585l71.197,72.926
			c0.176,0.181,0.363,0.34,0.547,0.506v27.874c0,6.902,5.597,12.5,12.5,12.5h36.129v65.229c0,6.904,5.597,12.5,12.5,12.5h46.537
			c6.903,0,12.5-5.596,12.5-12.5v-65.229h36.132c6.902,0,12.5-5.598,12.5-12.5v-27.872c0.184-0.168,0.371-0.326,0.548-0.506
			l71.195-72.926c3.514-3.599,4.527-8.951,2.575-13.585s-6.491-7.647-11.52-7.647h-62.8v-20.233
			c0.184-0.167,0.371-0.326,0.548-0.506l71.195-72.927c3.514-3.598,4.527-8.951,2.575-13.585c-1.952-4.634-6.491-7.647-11.52-7.647
			h-62.8v-20.234c0.184-0.167,0.371-0.326,0.548-0.506l71.195-72.927c3.514-3.598,4.527-8.951,2.575-13.585
			s-6.491-7.647-11.52-7.647h-62.8V12.5c0-6.904-5.598-12.5-12.5-12.5H167.939c-6.903,0-12.5,5.596-12.5,12.5v24.609h-62.8
			c-5.028,0-9.567,3.013-11.52,7.647c-1.952,4.634-0.938,9.986,2.575,13.584l71.197,72.927c0.176,0.18,0.363,0.338,0.547,0.505
			v20.235h-62.8c-5.028,0-9.567,3.013-11.52,7.647c-1.952,4.634-0.938,9.987,2.575,13.584l71.197,72.927
			c0.176,0.18,0.363,0.339,0.547,0.506v20.233H92.639V266.906z M122.312,291.906h33.127v33.933L122.312,291.906z M229.067,454.672
			v-52.753h21.537v52.753H229.067z M357.363,291.906l-33.127,33.933v-33.933H357.363z M357.363,177.008l-33.127,33.932v-33.932
			H357.363z M357.363,62.109l-33.127,33.933V62.109H357.363z M180.439,25h118.798v351.943h-27.082
			c-0.16-0.006-0.319-0.023-0.482-0.023h-57.417c-0.163,0-0.321,0.018-0.483,0.023H180.44L180.439,25L180.439,25z M122.312,62.109
			h33.127v33.932L122.312,62.109z M122.312,177.008h33.127v33.932L122.312,177.008z"/>
		<path d="M239.837,130.399c24.49,0,44.414-19.924,44.414-44.413c0-24.489-19.924-44.413-44.414-44.413
			c-24.489,0-44.413,19.924-44.413,44.413C195.424,110.475,215.348,130.399,239.837,130.399z M239.837,66.573
			c10.705,0,19.414,8.708,19.414,19.413s-8.709,19.413-19.414,19.413c-10.704,0-19.413-8.708-19.413-19.413
			S229.133,66.573,239.837,66.573z"/>
		<path d="M239.837,246.249c24.49,0,44.414-19.923,44.414-44.413s-19.924-44.413-44.414-44.413
			c-24.489,0-44.413,19.924-44.413,44.413S215.348,246.249,239.837,246.249z M239.837,182.423c10.705,0,19.414,8.708,19.414,19.413
			c0,10.704-8.709,19.413-19.414,19.413c-10.704,0-19.413-8.708-19.413-19.413S229.133,182.423,239.837,182.423z"/>
		<path d="M239.837,362.1c24.49,0,44.414-19.925,44.414-44.414c0-24.49-19.925-44.414-44.414-44.414s-44.413,19.924-44.413,44.414
			C195.424,342.175,215.348,362.1,239.837,362.1z M239.837,298.273c10.705,0,19.414,8.707,19.414,19.412
			s-8.709,19.414-19.414,19.414c-10.704,0-19.413-8.709-19.413-19.414C220.424,306.982,229.133,298.273,239.837,298.273z"/>
	</g>
</g>
<g>
</g>
<g>
</g>
<g>
</g>
<g>
</g>
<g>
</g>
<g>
</g>
<g>
</g>
<g>
</g>
<g>
</g>
<g>
</g>
<g>
</g>
<g>
</g>
<g>
</g>
<g>
</g>
<g>
</g>
</svg>
